<svg width="229" height="31" viewBox="0 0 229 31" fill="none" xmlns="http://www.w3.org/2000/svg">
<rect x="0.5" y="0.5" width="228" height="30" rx="9.5" stroke="#222222" stroke-opacity="0.1"/>
<path d="M14.8651 10.5455L17.4964 18.2457H17.6026L20.234 10.5455H21.7759L18.3736 20H16.7255L13.3232 10.5455H14.8651ZM25.0506 20.1431C24.352 20.1431 23.7503 19.9938 23.2456 19.6953C22.7439 19.3937 22.3561 18.9705 22.0822 18.4258C21.8114 17.878 21.676 17.2363 21.676 16.5007C21.676 15.7744 21.8114 15.1342 22.0822 14.5803C22.3561 14.0263 22.7378 13.5939 23.2271 13.283C23.7195 12.9722 24.2951 12.8168 24.9537 12.8168C25.3538 12.8168 25.7416 12.8829 26.117 13.0153C26.4925 13.1476 26.8295 13.3554 27.128 13.6385C27.4266 13.9216 27.662 14.2894 27.8344 14.7418C28.0067 15.1912 28.0929 15.7375 28.0929 16.3807V16.87H22.4562V15.8359H26.7403C26.7403 15.4728 26.6664 15.1512 26.5187 14.8711C26.3709 14.5879 26.1632 14.3648 25.8954 14.2017C25.6308 14.0386 25.3199 13.957 24.9629 13.957C24.5751 13.957 24.2366 14.0524 23.9473 14.2433C23.6611 14.431 23.4395 14.6772 23.2825 14.9819C23.1286 15.2835 23.0517 15.6113 23.0517 15.9652V16.7731C23.0517 17.247 23.1348 17.6502 23.301 17.9826C23.4702 18.315 23.7057 18.5689 24.0073 18.7443C24.3089 18.9167 24.6613 19.0028 25.0645 19.0028C25.3261 19.0028 25.5646 18.9659 25.78 18.892C25.9955 18.8151 26.1817 18.7012 26.3386 18.5504C26.4956 18.3996 26.6156 18.2134 26.6987 17.9918L28.0052 18.2273C27.9005 18.612 27.7128 18.949 27.442 19.2383C27.1742 19.5245 26.8372 19.7476 26.4309 19.9077C26.0278 20.0646 25.5677 20.1431 25.0506 20.1431ZM29.2994 20V12.9091H30.6336V14.0355H30.7074C30.8367 13.6539 31.0644 13.3538 31.3907 13.1353C31.72 12.9137 32.0924 12.8029 32.5078 12.8029C32.594 12.8029 32.6956 12.806 32.8125 12.8121C32.9326 12.8183 33.0264 12.826 33.0941 12.8352V14.1555C33.0387 14.1402 32.9403 14.1232 32.7987 14.1048C32.6571 14.0832 32.5155 14.0724 32.374 14.0724C32.0477 14.0724 31.7569 14.1417 31.5015 14.2802C31.2491 14.4156 31.049 14.6049 30.9013 14.848C30.7536 15.0881 30.6797 15.362 30.6797 15.6697V20H29.2994ZM39.2772 14.6403L38.0262 14.8619C37.9738 14.7018 37.8907 14.5495 37.7769 14.4048C37.6661 14.2602 37.5153 14.1417 37.3244 14.0494C37.1336 13.957 36.8951 13.9109 36.6089 13.9109C36.218 13.9109 35.8918 13.9986 35.6302 14.174C35.3686 14.3464 35.2378 14.5695 35.2378 14.8434C35.2378 15.0804 35.3255 15.2712 35.5009 15.4158C35.6764 15.5605 35.9595 15.679 36.3504 15.7713L37.4768 16.0298C38.1293 16.1806 38.6155 16.413 38.9356 16.7269C39.2557 17.0408 39.4157 17.4486 39.4157 17.9503C39.4157 18.375 39.2926 18.7536 39.0464 19.0859C38.8033 19.4152 38.4632 19.6738 38.0262 19.8615C37.5922 20.0492 37.089 20.1431 36.5166 20.1431C35.7225 20.1431 35.0747 19.9738 34.573 19.6353C34.0714 19.2937 33.7636 18.8089 33.6497 18.1811L34.9839 17.978C35.067 18.3258 35.2378 18.5889 35.4963 18.7674C35.7548 18.9428 36.0918 19.0305 36.5073 19.0305C36.9597 19.0305 37.3214 18.9367 37.5922 18.7489C37.863 18.5581 37.9985 18.3258 37.9985 18.0518C37.9985 17.8303 37.9154 17.6441 37.7492 17.4933C37.586 17.3424 37.3352 17.2286 36.9967 17.1516L35.7964 16.8885C35.1347 16.7377 34.6454 16.4976 34.3284 16.1683C34.0144 15.839 33.8575 15.422 33.8575 14.9173C33.8575 14.4987 33.9744 14.1325 34.2083 13.8185C34.4422 13.5046 34.7654 13.2599 35.1778 13.0845C35.5902 12.906 36.0626 12.8168 36.595 12.8168C37.3614 12.8168 37.9646 12.983 38.4047 13.3153C38.8448 13.6446 39.1356 14.0863 39.2772 14.6403ZM40.6084 20V12.9091H41.9887V20H40.6084ZM41.3055 11.815C41.0654 11.815 40.8592 11.735 40.6869 11.5749C40.5176 11.4118 40.433 11.2179 40.433 10.9933C40.433 10.7655 40.5176 10.5716 40.6869 10.4116C40.8592 10.2485 41.0654 10.1669 41.3055 10.1669C41.5455 10.1669 41.7502 10.2485 41.9195 10.4116C42.0918 10.5716 42.178 10.7655 42.178 10.9933C42.178 11.2179 42.0918 11.4118 41.9195 11.5749C41.7502 11.735 41.5455 11.815 41.3055 11.815ZM46.5075 20.1431C45.8428 20.1431 45.2626 19.9908 44.7671 19.6861C44.2716 19.3814 43.8869 18.9551 43.613 18.4073C43.3391 17.8595 43.2021 17.2193 43.2021 16.4869C43.2021 15.7513 43.3391 15.1081 43.613 14.5572C43.8869 14.0063 44.2716 13.5785 44.7671 13.2738C45.2626 12.9691 45.8428 12.8168 46.5075 12.8168C47.1723 12.8168 47.7525 12.9691 48.248 13.2738C48.7435 13.5785 49.1282 14.0063 49.4021 14.5572C49.676 15.1081 49.8129 15.7513 49.8129 16.4869C49.8129 17.2193 49.676 17.8595 49.4021 18.4073C49.1282 18.9551 48.7435 19.3814 48.248 19.6861C47.7525 19.9908 47.1723 20.1431 46.5075 20.1431ZM46.5122 18.9844C46.943 18.9844 47.3 18.8705 47.5832 18.6428C47.8663 18.415 48.0756 18.1119 48.211 17.7333C48.3495 17.3548 48.4188 16.9377 48.4188 16.4822C48.4188 16.0298 48.3495 15.6143 48.211 15.2358C48.0756 14.8542 47.8663 14.5479 47.5832 14.3171C47.3 14.0863 46.943 13.9709 46.5122 13.9709C46.0782 13.9709 45.7181 14.0863 45.4319 14.3171C45.1488 14.5479 44.9379 14.8542 44.7994 15.2358C44.664 15.6143 44.5963 16.0298 44.5963 16.4822C44.5963 16.9377 44.664 17.3548 44.7994 17.7333C44.9379 18.1119 45.1488 18.415 45.4319 18.6428C45.7181 18.8705 46.0782 18.9844 46.5122 18.9844ZM52.409 15.7898V20H51.0287V12.9091H52.3536V14.0632H52.4413C52.6045 13.6877 52.8599 13.3861 53.2077 13.1584C53.5585 12.9306 54.0002 12.8168 54.5326 12.8168C55.0158 12.8168 55.439 12.9183 55.8021 13.1214C56.1653 13.3215 56.4469 13.62 56.6469 14.017C56.847 14.4141 56.947 14.9049 56.947 15.4897V20H55.5667V15.6559C55.5667 15.1419 55.4328 14.7403 55.1651 14.451C54.8973 14.1586 54.5295 14.0124 54.0617 14.0124C53.7416 14.0124 53.457 14.0817 53.2077 14.2202C52.9615 14.3587 52.766 14.5618 52.6214 14.8295C52.4798 15.0942 52.409 15.4143 52.409 15.7898ZM61.5702 20V18.9659L64.7694 15.6513C65.111 15.2912 65.3926 14.9757 65.6142 14.7049C65.8389 14.431 66.0066 14.1709 66.1174 13.9247C66.2282 13.6785 66.2836 13.4169 66.2836 13.1399C66.2836 12.826 66.2097 12.5552 66.062 12.3274C65.9143 12.0966 65.7127 11.9196 65.4573 11.7965C65.2018 11.6703 64.9141 11.6072 64.594 11.6072C64.2554 11.6072 63.96 11.6765 63.7076 11.815C63.4553 11.9535 63.2614 12.1489 63.1259 12.4013C62.9905 12.6536 62.9228 12.9491 62.9228 13.2876H61.561C61.561 12.7121 61.6933 12.2089 61.958 11.7781C62.2227 11.3472 62.5858 11.0133 63.0475 10.7763C63.5091 10.5362 64.0338 10.4162 64.6217 10.4162C65.2157 10.4162 65.7389 10.5347 66.1913 10.7717C66.6468 11.0056 67.0022 11.3256 67.2577 11.7319C67.5131 12.1351 67.6409 12.5906 67.6409 13.0984C67.6409 13.4492 67.5747 13.7924 67.4423 14.1278C67.3131 14.4633 67.0869 14.8372 66.7637 15.2496C66.4406 15.659 65.9912 16.156 65.4157 16.7408L63.5368 18.7074V18.7766H67.7932V20H61.5702ZM70.1458 20.0877C69.8934 20.0877 69.6764 19.9985 69.4948 19.82C69.3133 19.6384 69.2225 19.4199 69.2225 19.1644C69.2225 18.9121 69.3133 18.6966 69.4948 18.5181C69.6764 18.3365 69.8934 18.2457 70.1458 18.2457C70.3981 18.2457 70.6151 18.3365 70.7967 18.5181C70.9783 18.6966 71.0691 18.9121 71.0691 19.1644C71.0691 19.3337 71.026 19.4891 70.9398 19.6307C70.8567 19.7692 70.7459 19.88 70.6074 19.9631C70.4689 20.0462 70.315 20.0877 70.1458 20.0877ZM75.5233 20.157C74.7939 20.1539 74.1706 19.9615 73.6536 19.5799C73.1365 19.1983 72.7411 18.6428 72.4672 17.9134C72.1932 17.1839 72.0563 16.3053 72.0563 15.2773C72.0563 14.2525 72.1932 13.3769 72.4672 12.6506C72.7441 11.9242 73.1412 11.3703 73.6582 10.9886C74.1783 10.607 74.8 10.4162 75.5233 10.4162C76.2465 10.4162 76.8667 10.6085 77.3837 10.9933C77.9007 11.3749 78.2962 11.9289 78.5701 12.6552C78.8471 13.3784 78.9856 14.2525 78.9856 15.2773C78.9856 16.3084 78.8487 17.1886 78.5748 17.918C78.3008 18.6443 77.9054 19.1998 77.3883 19.5845C76.8713 19.9661 76.2496 20.157 75.5233 20.157ZM75.5233 18.9244C76.1634 18.9244 76.6635 18.612 77.0236 17.9872C77.3868 17.3625 77.5684 16.4592 77.5684 15.2773C77.5684 14.4925 77.4853 13.8293 77.3191 13.2876C77.156 12.7429 76.9205 12.3305 76.6127 12.0504C76.3081 11.7673 75.9449 11.6257 75.5233 11.6257C74.8862 11.6257 74.3861 11.9396 74.0229 12.5675C73.6597 13.1953 73.4766 14.0986 73.4735 15.2773C73.4735 16.0652 73.5551 16.7315 73.7182 17.2763C73.8844 17.8179 74.1199 18.2288 74.4245 18.5089C74.7292 18.7859 75.0955 18.9244 75.5233 18.9244ZM83.4322 20V12.9091H84.8125V20H83.4322ZM84.1293 11.815C83.8892 11.815 83.683 11.735 83.5107 11.5749C83.3414 11.4118 83.2568 11.2179 83.2568 10.9933C83.2568 10.7655 83.3414 10.5716 83.5107 10.4116C83.683 10.2485 83.8892 10.1669 84.1293 10.1669C84.3694 10.1669 84.574 10.2485 84.7433 10.4116C84.9156 10.5716 85.0018 10.7655 85.0018 10.9933C85.0018 11.2179 84.9156 11.4118 84.7433 11.5749C84.574 11.735 84.3694 11.815 84.1293 11.815ZM91.6581 14.6403L90.407 14.8619C90.3547 14.7018 90.2716 14.5495 90.1577 14.4048C90.0469 14.2602 89.8961 14.1417 89.7053 14.0494C89.5145 13.957 89.276 13.9109 88.9898 13.9109C88.5989 13.9109 88.2727 13.9986 88.0111 14.174C87.7495 14.3464 87.6187 14.5695 87.6187 14.8434C87.6187 15.0804 87.7064 15.2712 87.8818 15.4158C88.0572 15.5605 88.3404 15.679 88.7312 15.7713L89.8577 16.0298C90.5101 16.1806 90.9964 16.413 91.3165 16.7269C91.6365 17.0408 91.7966 17.4486 91.7966 17.9503C91.7966 18.375 91.6735 18.7536 91.4273 19.0859C91.1841 19.4152 90.844 19.6738 90.407 19.8615C89.9731 20.0492 89.4699 20.1431 88.8974 20.1431C88.1034 20.1431 87.4555 19.9738 86.9539 19.6353C86.4522 19.2937 86.1445 18.8089 86.0306 18.1811L87.3648 17.978C87.4479 18.3258 87.6187 18.5889 87.8772 18.7674C88.1357 18.9428 88.4727 19.0305 88.8882 19.0305C89.3406 19.0305 89.7022 18.9367 89.9731 18.7489C90.2439 18.5581 90.3793 18.3258 90.3793 18.0518C90.3793 17.8303 90.2962 17.6441 90.13 17.4933C89.9669 17.3424 89.7161 17.2286 89.3775 17.1516L88.1773 16.8885C87.5156 16.7377 87.0262 16.4976 86.7092 16.1683C86.3953 15.839 86.2383 15.422 86.2383 14.9173C86.2383 14.4987 86.3553 14.1325 86.5892 13.8185C86.8231 13.5046 87.1462 13.2599 87.5586 13.0845C87.9711 12.906 88.4435 12.8168 88.9759 12.8168C89.7422 12.8168 90.3455 12.983 90.7856 13.3153C91.2257 13.6446 91.5165 14.0863 91.6581 14.6403ZM97.485 15.7898V20H96.1047V10.5455H97.4665V14.0632H97.5542C97.7204 13.6816 97.9743 13.3784 98.316 13.1538C98.6576 12.9291 99.1038 12.8168 99.6547 12.8168C100.141 12.8168 100.566 12.9168 100.929 13.1168C101.295 13.3169 101.578 13.6154 101.778 14.0124C101.981 14.4064 102.083 14.8988 102.083 15.4897V20H100.703V15.6559C100.703 15.1358 100.569 14.7326 100.301 14.4464C100.033 14.1571 99.6609 14.0124 99.1839 14.0124C98.8576 14.0124 98.5653 14.0817 98.3067 14.2202C98.0513 14.3587 97.8497 14.5618 97.702 14.8295C97.5573 15.0942 97.485 15.4143 97.485 15.7898ZM106.656 20.1431C105.957 20.1431 105.356 19.9938 104.851 19.6953C104.349 19.3937 103.962 18.9705 103.688 18.4258C103.417 17.878 103.281 17.2363 103.281 16.5007C103.281 15.7744 103.417 15.1342 103.688 14.5803C103.962 14.0263 104.343 13.5939 104.833 13.283C105.325 12.9722 105.901 12.8168 106.559 12.8168C106.959 12.8168 107.347 12.8829 107.722 13.0153C108.098 13.1476 108.435 13.3554 108.734 13.6385C109.032 13.9216 109.267 14.2894 109.44 14.7418C109.612 15.1912 109.698 15.7375 109.698 16.3807V16.87H104.062V15.8359H108.346C108.346 15.4728 108.272 15.1512 108.124 14.8711C107.976 14.5879 107.769 14.3648 107.501 14.2017C107.236 14.0386 106.925 13.957 106.568 13.957C106.181 13.957 105.842 14.0524 105.553 14.2433C105.267 14.431 105.045 14.6772 104.888 14.9819C104.734 15.2835 104.657 15.6113 104.657 15.9652V16.7731C104.657 17.247 104.74 17.6502 104.906 17.9826C105.076 18.315 105.311 18.5689 105.613 18.7443C105.914 18.9167 106.267 19.0028 106.67 19.0028C106.932 19.0028 107.17 18.9659 107.385 18.892C107.601 18.8151 107.787 18.7012 107.944 18.5504C108.101 18.3996 108.221 18.2134 108.304 17.9918L109.611 18.2273C109.506 18.612 109.318 18.949 109.047 19.2383C108.78 19.5245 108.443 19.7476 108.036 19.9077C107.633 20.0646 107.173 20.1431 106.656 20.1431ZM110.905 20V12.9091H112.239V14.0355H112.313C112.442 13.6539 112.67 13.3538 112.996 13.1353C113.325 12.9137 113.698 12.8029 114.113 12.8029C114.199 12.8029 114.301 12.806 114.418 12.8121C114.538 12.8183 114.632 12.826 114.7 12.8352V14.1555C114.644 14.1402 114.546 14.1232 114.404 14.1048C114.263 14.0832 114.121 14.0724 113.979 14.0724C113.653 14.0724 113.362 14.1417 113.107 14.2802C112.855 14.4156 112.655 14.6049 112.507 14.848C112.359 15.0881 112.285 15.362 112.285 15.6697V20H110.905ZM118.371 20.1431C117.673 20.1431 117.071 19.9938 116.566 19.6953C116.065 19.3937 115.677 18.9705 115.403 18.4258C115.132 17.878 114.997 17.2363 114.997 16.5007C114.997 15.7744 115.132 15.1342 115.403 14.5803C115.677 14.0263 116.058 13.5939 116.548 13.283C117.04 12.9722 117.616 12.8168 118.274 12.8168C118.674 12.8168 119.062 12.8829 119.438 13.0153C119.813 13.1476 120.15 13.3554 120.449 13.6385C120.747 13.9216 120.983 14.2894 121.155 14.7418C121.327 15.1912 121.414 15.7375 121.414 16.3807V16.87H115.777V15.8359H120.061C120.061 15.4728 119.987 15.1512 119.839 14.8711C119.692 14.5879 119.484 14.3648 119.216 14.2017C118.951 14.0386 118.641 13.957 118.284 13.957C117.896 13.957 117.557 14.0524 117.268 14.2433C116.982 14.431 116.76 14.6772 116.603 14.9819C116.449 15.2835 116.372 15.6113 116.372 15.9652V16.7731C116.372 17.247 116.455 17.6502 116.622 17.9826C116.791 18.315 117.026 18.5689 117.328 18.7443C117.63 18.9167 117.982 19.0028 118.385 19.0028C118.647 19.0028 118.885 18.9659 119.101 18.892C119.316 18.8151 119.502 18.7012 119.659 18.5504C119.816 18.3996 119.936 18.2134 120.019 17.9918L121.326 18.2273C121.221 18.612 121.033 18.949 120.763 19.2383C120.495 19.5245 120.158 19.7476 119.752 19.9077C119.348 20.0646 118.888 20.1431 118.371 20.1431Z" fill="white" fill-opacity="0.5"/>
<path d="M131.039 20V10.5455H134.409C135.141 10.5455 135.749 10.6716 136.232 10.924C136.719 11.1764 137.082 11.5257 137.322 11.9719C137.562 12.4151 137.682 12.9276 137.682 13.5092C137.682 14.0878 137.56 14.5972 137.317 15.0373C137.077 15.4743 136.714 15.8144 136.228 16.0575C135.744 16.3007 135.137 16.4222 134.404 16.4222H131.851V15.1942H134.275C134.737 15.1942 135.112 15.1281 135.401 14.9957C135.694 14.8634 135.908 14.671 136.043 14.4187C136.178 14.1663 136.246 13.8632 136.246 13.5092C136.246 13.1522 136.177 12.8429 136.038 12.5813C135.903 12.3197 135.689 12.1197 135.397 11.9812C135.107 11.8396 134.727 11.7688 134.256 11.7688H132.465V20H131.039ZM135.706 15.7344L138.042 20H136.417L134.127 15.7344H135.706ZM141.949 20.1431C141.25 20.1431 140.649 19.9938 140.144 19.6953C139.642 19.3937 139.255 18.9705 138.981 18.4258C138.71 17.878 138.574 17.2363 138.574 16.5007C138.574 15.7744 138.71 15.1342 138.981 14.5803C139.255 14.0263 139.636 13.5939 140.126 13.283C140.618 12.9722 141.193 12.8168 141.852 12.8168C142.252 12.8168 142.64 12.8829 143.015 13.0153C143.391 13.1476 143.728 13.3554 144.026 13.6385C144.325 13.9216 144.56 14.2894 144.733 14.7418C144.905 15.1912 144.991 15.7375 144.991 16.3807V16.87H139.355V15.8359H143.639C143.639 15.4728 143.565 15.1512 143.417 14.8711C143.269 14.5879 143.062 14.3648 142.794 14.2017C142.529 14.0386 142.218 13.957 141.861 13.957C141.474 13.957 141.135 14.0524 140.846 14.2433C140.559 14.431 140.338 14.6772 140.181 14.9819C140.027 15.2835 139.95 15.6113 139.95 15.9652V16.7731C139.95 17.247 140.033 17.6502 140.199 17.9826C140.369 18.315 140.604 18.5689 140.906 18.7443C141.207 18.9167 141.56 19.0028 141.963 19.0028C142.225 19.0028 142.463 18.9659 142.678 18.892C142.894 18.8151 143.08 18.7012 143.237 18.5504C143.394 18.3996 143.514 18.2134 143.597 17.9918L144.904 18.2273C144.799 18.612 144.611 18.949 144.34 19.2383C144.073 19.5245 143.736 19.7476 143.329 19.9077C142.926 20.0646 142.466 20.1431 141.949 20.1431ZM148.261 20.157C147.812 20.157 147.406 20.0739 147.043 19.9077C146.679 19.7384 146.392 19.4937 146.179 19.1737C145.97 18.8536 145.865 18.4612 145.865 17.9964C145.865 17.5964 145.942 17.267 146.096 17.0085C146.25 16.75 146.458 16.5453 146.719 16.3945C146.981 16.2437 147.273 16.1299 147.597 16.0529C147.92 15.976 148.249 15.9175 148.585 15.8775C149.009 15.8282 149.354 15.7882 149.619 15.7575C149.883 15.7236 150.076 15.6697 150.196 15.5959C150.316 15.522 150.376 15.402 150.376 15.2358V15.2035C150.376 14.8003 150.262 14.4879 150.034 14.2663C149.809 14.0447 149.474 13.9339 149.028 13.9339C148.563 13.9339 148.197 14.037 147.929 14.2433C147.664 14.4464 147.481 14.6726 147.38 14.9219L146.082 14.6264C146.236 14.1955 146.461 13.8478 146.756 13.5831C147.055 13.3153 147.398 13.1214 147.786 13.0014C148.174 12.8783 148.581 12.8168 149.009 12.8168C149.292 12.8168 149.592 12.8506 149.909 12.9183C150.23 12.983 150.528 13.103 150.805 13.2784C151.085 13.4538 151.314 13.7047 151.493 14.0309C151.671 14.354 151.761 14.7741 151.761 15.2912V20H150.413V19.0305H150.357C150.268 19.209 150.134 19.3845 149.956 19.5568C149.777 19.7292 149.548 19.8723 149.268 19.9862C148.988 20.1 148.652 20.157 148.261 20.157ZM148.561 19.049C148.943 19.049 149.269 18.9736 149.54 18.8228C149.814 18.672 150.022 18.475 150.163 18.2319C150.308 17.9857 150.38 17.7225 150.38 17.4425V16.5284C150.331 16.5777 150.236 16.6238 150.094 16.6669C149.956 16.7069 149.797 16.7423 149.619 16.7731C149.44 16.8008 149.266 16.8269 149.097 16.8516C148.928 16.8731 148.786 16.8916 148.672 16.907C148.405 16.9408 148.16 16.9978 147.938 17.0778C147.72 17.1578 147.544 17.2732 147.412 17.424C147.283 17.5717 147.218 17.7687 147.218 18.0149C147.218 18.3565 147.344 18.6151 147.597 18.7905C147.849 18.9628 148.171 19.049 148.561 19.049ZM155.929 20.1385C155.356 20.1385 154.845 19.9923 154.396 19.6999C153.95 19.4045 153.599 18.9844 153.343 18.4396C153.091 17.8918 152.965 17.2347 152.965 16.4684C152.965 15.7021 153.093 15.0465 153.348 14.5018C153.607 13.957 153.961 13.54 154.41 13.2507C154.859 12.9614 155.369 12.8168 155.938 12.8168C156.378 12.8168 156.732 12.8906 157 13.0384C157.271 13.183 157.48 13.3523 157.628 13.5462C157.778 13.7401 157.895 13.9109 157.978 14.0586H158.061V10.5455H159.442V20H158.094V18.8967H157.978C157.895 19.0475 157.775 19.2198 157.618 19.4137C157.464 19.6076 157.252 19.7769 156.981 19.9215C156.71 20.0662 156.36 20.1385 155.929 20.1385ZM156.233 18.9613C156.63 18.9613 156.966 18.8567 157.24 18.6474C157.517 18.435 157.726 18.1411 157.868 17.7656C158.012 17.3902 158.085 16.9531 158.085 16.4545C158.085 15.9621 158.014 15.5312 157.872 15.1619C157.731 14.7926 157.523 14.5049 157.249 14.2987C156.975 14.0924 156.637 13.9893 156.233 13.9893C155.818 13.9893 155.472 14.0971 155.195 14.3125C154.918 14.5279 154.708 14.8219 154.567 15.1942C154.428 15.5666 154.359 15.9867 154.359 16.4545C154.359 16.9285 154.43 17.3548 154.571 17.7333C154.713 18.1119 154.922 18.4119 155.199 18.6335C155.479 18.852 155.824 18.9613 156.233 18.9613ZM164.202 20V12.9091H165.527V14.0632H165.615C165.763 13.6723 166.004 13.3677 166.34 13.1491C166.675 12.9276 167.077 12.8168 167.545 12.8168C168.019 12.8168 168.416 12.9276 168.736 13.1491C169.059 13.3707 169.297 13.6754 169.451 14.0632H169.525C169.694 13.6847 169.964 13.383 170.333 13.1584C170.702 12.9306 171.142 12.8168 171.653 12.8168C172.297 12.8168 172.821 13.0183 173.228 13.4215C173.637 13.8247 173.842 14.4325 173.842 15.245V20H172.461V15.3743C172.461 14.8942 172.33 14.5464 172.069 14.331C171.807 14.1155 171.495 14.0078 171.132 14.0078C170.682 14.0078 170.333 14.1463 170.084 14.4233C169.834 14.6972 169.71 15.0496 169.71 15.4805V20H168.334V15.2866C168.334 14.9019 168.214 14.5926 167.974 14.3587C167.734 14.1248 167.422 14.0078 167.037 14.0078C166.775 14.0078 166.534 14.0771 166.312 14.2156C166.094 14.351 165.917 14.5402 165.781 14.7834C165.649 15.0265 165.583 15.3081 165.583 15.6282V20H164.202ZM178.353 20.1431C177.689 20.1431 177.109 19.9908 176.613 19.6861C176.118 19.3814 175.733 18.9551 175.459 18.4073C175.185 17.8595 175.048 17.2193 175.048 16.4869C175.048 15.7513 175.185 15.1081 175.459 14.5572C175.733 14.0063 176.118 13.5785 176.613 13.2738C177.109 12.9691 177.689 12.8168 178.353 12.8168C179.018 12.8168 179.598 12.9691 180.094 13.2738C180.589 13.5785 180.974 14.0063 181.248 14.5572C181.522 15.1081 181.659 15.7513 181.659 16.4869C181.659 17.2193 181.522 17.8595 181.248 18.4073C180.974 18.9551 180.589 19.3814 180.094 19.6861C179.598 19.9908 179.018 20.1431 178.353 20.1431ZM178.358 18.9844C178.789 18.9844 179.146 18.8705 179.429 18.6428C179.712 18.415 179.922 18.1119 180.057 17.7333C180.195 17.3548 180.265 16.9377 180.265 16.4822C180.265 16.0298 180.195 15.6143 180.057 15.2358C179.922 14.8542 179.712 14.5479 179.429 14.3171C179.146 14.0863 178.789 13.9709 178.358 13.9709C177.924 13.9709 177.564 14.0863 177.278 14.3171C176.995 14.5479 176.784 14.8542 176.645 15.2358C176.51 15.6143 176.442 16.0298 176.442 16.4822C176.442 16.9377 176.51 17.3548 176.645 17.7333C176.784 18.1119 176.995 18.415 177.278 18.6428C177.564 18.8705 177.924 18.9844 178.358 18.9844ZM182.875 20V12.9091H184.209V14.0355H184.283C184.412 13.6539 184.64 13.3538 184.966 13.1353C185.295 12.9137 185.668 12.8029 186.083 12.8029C186.169 12.8029 186.271 12.806 186.388 12.8121C186.508 12.8183 186.602 12.826 186.669 12.8352V14.1555C186.614 14.1402 186.515 14.1232 186.374 14.1048C186.232 14.0832 186.091 14.0724 185.949 14.0724C185.623 14.0724 185.332 14.1417 185.077 14.2802C184.824 14.4156 184.624 14.6049 184.477 14.848C184.329 15.0881 184.255 15.362 184.255 15.6697V20H182.875ZM190.341 20.1431C189.642 20.1431 189.041 19.9938 188.536 19.6953C188.034 19.3937 187.647 18.9705 187.373 18.4258C187.102 17.878 186.966 17.2363 186.966 16.5007C186.966 15.7744 187.102 15.1342 187.373 14.5803C187.647 14.0263 188.028 13.5939 188.518 13.283C189.01 12.9722 189.585 12.8168 190.244 12.8168C190.644 12.8168 191.032 12.8829 191.407 13.0153C191.783 13.1476 192.12 13.3554 192.418 13.6385C192.717 13.9216 192.952 14.2894 193.125 14.7418C193.297 15.1912 193.383 15.7375 193.383 16.3807V16.87H187.747V15.8359H192.031C192.031 15.4728 191.957 15.1512 191.809 14.8711C191.661 14.5879 191.454 14.3648 191.186 14.2017C190.921 14.0386 190.61 13.957 190.253 13.957C189.866 13.957 189.527 14.0524 189.238 14.2433C188.951 14.431 188.73 14.6772 188.573 14.9819C188.419 15.2835 188.342 15.6113 188.342 15.9652V16.7731C188.342 17.247 188.425 17.6502 188.591 17.9826C188.761 18.315 188.996 18.5689 189.298 18.7443C189.599 18.9167 189.952 19.0028 190.355 19.0028C190.617 19.0028 190.855 18.9659 191.07 18.892C191.286 18.8151 191.472 18.7012 191.629 18.5504C191.786 18.3996 191.906 18.2134 191.989 17.9918L193.296 18.2273C193.191 18.612 193.003 18.949 192.732 19.2383C192.465 19.5245 192.128 19.7476 191.721 19.9077C191.318 20.0646 190.858 20.1431 190.341 20.1431Z" fill="white"/>
<path d="M212.825 15.9245L209.225 19.5245C209.112 19.6372 208.959 19.7006 208.8 19.7006C208.64 19.7006 208.487 19.6372 208.375 19.5245C208.262 19.4118 208.198 19.2589 208.198 19.0995C208.198 18.9401 208.262 18.7872 208.375 18.6745L210.95 16.1H203.6C203.441 16.1 203.288 16.0368 203.176 15.9243C203.063 15.8118 203 15.6591 203 15.5C203 15.3409 203.063 15.1883 203.176 15.0758C203.288 14.9632 203.441 14.9 203.6 14.9H210.95L208.375 12.324C208.263 12.2113 208.199 12.0584 208.199 11.899C208.199 11.7396 208.263 11.5867 208.375 11.474C208.488 11.3613 208.641 11.298 208.8 11.298C208.96 11.298 209.113 11.3613 209.225 11.474L212.825 15.074C212.881 15.1298 212.926 15.1962 212.956 15.2692C212.986 15.3422 213.002 15.4204 213.002 15.4995C213.002 15.5785 212.986 15.6567 212.956 15.7297C212.925 15.8026 212.881 15.8688 212.825 15.9245Z" fill="white"/>
</svg>
